<?xml version="1.0" encoding="UTF-8"?>
<svg id="Layer_2" data-name="Layer 2" xmlns="http://www.w3.org/2000/svg" viewBox="0 0 912.17 100.22">
  <defs>
    <style>
      .cls-1 {
        fill: none;
        stroke: #391e10;
        stroke-miterlimit: 10;
        stroke-width: 1.59px;
      }

      .cls-2 {
        fill: #502819;
      }

      .cls-2, .cls-3 {
        stroke-width: 0px;
      }

      .cls-3 {
        fill: #289248;
      }
    </style>
  </defs>
  <g id="Camada_1" data-name="Camada 1">
    <g>
      <g>
        <polyline class="cls-1" points="38.23 36.45 30.95 31.71 30.95 12.81"/>
        <polyline class="cls-1" points="53.3 68.04 64.19 61.28 64.19 53.48"/>
        <line class="cls-1" x1="53.3" y1="38.09" x2="75.08" y2="16.2"/>
        <polyline class="cls-1" points="23.31 39.11 23.31 59.49 53.16 79.71 53.16 16.2"/>
        <polyline class="cls-1" points="91.97 37.31 71.1 49.57 71.1 69.44 53.16 79.71 53.16 100.22"/>
        <line class="cls-1" x1="25.56" y1="72.93" x2="35.63" y2="67.11"/>
        <polyline class="cls-1" points="38.29 25.15 38.29 45.53 53.16 54.86"/>
        <circle class="cls-3" cx="92.1" cy="36.45" r="3.67"/>
        <circle class="cls-3" cx="87.63" cy="51.92" r="2.66"/>
        <circle class="cls-3" cx="98.51" cy="63.7" r="3.28"/>
        <circle class="cls-3" cx="11.82" cy="38.94" r="1.91"/>
        <circle class="cls-3" cx="43.02" cy="36" r="1.91"/>
        <circle class="cls-3" cx="41.85" cy="14.32" r="1.91"/>
        <circle class="cls-3" cx="22.37" cy="22.05" r="1.91"/>
        <circle class="cls-3" cx="23.31" cy="49.65" r="2.72"/>
        <circle class="cls-3" cx="13.74" cy="55.58" r="1.91"/>
        <circle class="cls-3" cx="70.98" cy="69.88" r="1.91"/>
        <circle class="cls-3" cx="64.19" cy="53.48" r="2.93"/>
        <circle class="cls-3" cx="67.51" cy="40" r="1.91"/>
        <circle class="cls-3" cx="14.59" cy="68.82" r="1.91"/>
        <circle class="cls-3" cx="36.66" cy="54.24" r="2.65"/>
        <circle class="cls-3" cx="2.77" cy="64.68" r="2.65"/>
        <circle class="cls-3" cx="53.16" cy="17.1" r="2.66"/>
        <circle class="cls-3" cx="45.68" cy="2.66" r="2.66"/>
        <circle class="cls-3" cx="3.37" cy="48.91" r="3.37"/>
        <circle class="cls-3" cx="75.08" cy="16.2" r="3.32"/>
        <circle class="cls-3" cx="65.59" cy="25.83" r="3.32"/>
        <circle class="cls-3" cx="38.29" cy="25.37" r="3.32"/>
        <circle class="cls-3" cx="61.88" cy="6.34" r="4.29"/>
        <circle class="cls-3" cx="30.95" cy="12.81" r="4.29"/>
        <circle class="cls-3" cx="23.31" cy="36" r="4.29"/>
        <circle class="cls-3" cx="79.37" cy="34.52" r="4.29"/>
        <circle class="cls-3" cx="53.3" cy="38.09" r="4.29"/>
        <circle class="cls-3" cx="99.15" cy="47.27" r="4.29"/>
        <circle class="cls-3" cx="26.66" cy="72.33" r="4.29"/>
        <circle class="cls-3" cx="84.74" cy="71.62" r="4.29"/>
      </g>
      <g>
        <path class="cls-2" d="m155.01,16.73c4.56,0,8.42.54,11.57,1.62,3.15,1.08,5.68,2.84,7.61,5.27,1.92,2.43,3.32,5.7,4.19,9.81.87,4.11,1.31,9.17,1.31,15.17s-.44,11.06-1.31,15.17c-.87,4.11-2.27,7.38-4.19,9.81-1.92,2.43-4.46,4.19-7.61,5.27-3.15,1.08-7.01,1.62-11.57,1.62-4.32,0-8.33-.08-12.02-.22-3.69-.15-7.19-.35-10.49-.59l3.78-7.2c2.52.12,5.32.22,8.42.32,3.09.09,6.53.13,10.31.13s6.87-.75,9.09-2.25c2.22-1.5,3.79-4.01,4.73-7.52.93-3.51,1.4-8.36,1.4-14.54s-.47-11.03-1.4-14.54c-.93-3.51-2.51-6.02-4.73-7.52-2.22-1.5-5.25-2.25-9.09-2.25s-7.05.02-9.99.05c-2.94.03-5.82.08-8.64.13l-3.87-6.93c3.3-.24,6.8-.43,10.49-.59,3.69-.15,7.7-.23,12.02-.23Zm-13.5.81v62.11h-9V17.54h9Z"/>
        <path class="cls-2" d="m198.39,16.91c1.74,0,2.61.87,2.61,2.61v5.13c0,1.74-.87,2.61-2.61,2.61h-4.05c-1.74,0-2.61-.87-2.61-2.61v-5.13c0-1.74.87-2.61,2.61-2.61h4.05Zm2.25,18.81v43.93h-8.55v-43.93h8.55Z"/>
        <path class="cls-2" d="m219.72,59.76l4.77.63c-.96.84-1.62,1.89-1.98,3.15s-.27,2.4.27,3.42c.54,1.02,1.74,1.68,3.6,1.98l16.38,2.52c4.2.54,7.14,1.82,8.82,3.83,1.68,2.01,2.52,4.87,2.52,8.6s-.68,6.3-2.03,8.28c-1.35,1.98-3.59,3.39-6.71,4.23-3.12.84-7.32,1.26-12.6,1.26-4.14,0-7.59-.22-10.35-.67-2.76-.45-4.97-1.2-6.62-2.25-1.65-1.05-2.84-2.42-3.56-4.1-.72-1.68-1.08-3.75-1.08-6.21,0-1.92.28-3.54.86-4.86.57-1.32,1.51-2.49,2.84-3.51,1.32-1.02,3.03-2.01,5.13-2.97l5.67-2.79,3.78,1.35-4.32,3.15c-1.26.9-2.3,1.79-3.11,2.66-.81.87-1.43,1.77-1.85,2.7-.42.93-.63,2.06-.63,3.38,0,1.92.37,3.39,1.12,4.41.75,1.02,2.08,1.71,4.01,2.07,1.92.36,4.59.54,8.01.54s6.06-.2,7.92-.59c1.86-.39,3.16-1.08,3.92-2.07.75-.99,1.12-2.42,1.12-4.28,0-1.44-.2-2.54-.59-3.29-.39-.75-1.12-1.32-2.21-1.71-1.08-.39-2.64-.73-4.68-1.03l-15.39-1.98c-1.98-.24-3.54-.86-4.68-1.85-1.14-.99-1.94-2.16-2.39-3.51-.45-1.35-.57-2.7-.36-4.05.21-1.35.69-2.62,1.44-3.83.75-1.2,1.72-2.07,2.93-2.61Zm12.6-25.11c4.74,0,8.51.47,11.3,1.4,2.79.93,4.79,2.43,5.99,4.5,1.2,2.07,1.8,4.76,1.8,8.06s-.6,5.81-1.8,7.88c-1.2,2.07-3.21,3.6-6.03,4.59-2.82.99-6.6,1.49-11.34,1.49s-8.6-.49-11.39-1.49c-2.79-.99-4.79-2.5-5.99-4.55-1.2-2.04-1.8-4.65-1.8-7.83,0-3.36.6-6.08,1.8-8.15,1.2-2.07,3.21-3.57,6.03-4.5,2.82-.93,6.63-1.4,11.43-1.4Zm-.09,6.21c-4.2,0-7.11.59-8.73,1.76-1.62,1.17-2.43,3.17-2.43,5.99s.81,4.74,2.43,5.94c1.62,1.2,4.53,1.8,8.73,1.8s7.1-.6,8.69-1.8c1.59-1.2,2.39-3.18,2.39-5.94s-.8-4.82-2.39-5.99c-1.59-1.17-4.49-1.76-8.69-1.76Zm24.3-5.13l-.45,4.5-11.34.99-3.15-5.49h14.94Z"/>
        <path class="cls-2" d="m271.75,16.91c1.74,0,2.61.87,2.61,2.61v5.13c0,1.74-.87,2.61-2.61,2.61h-4.05c-1.74,0-2.61-.87-2.61-2.61v-5.13c0-1.74.87-2.61,2.61-2.61h4.05Zm2.25,18.81v43.93h-8.55v-43.93h8.55Z"/>
        <path class="cls-2" d="m313.69,35.72v6.48h-30.33v-6.03l8.64-.45h21.69Zm-13.68-12.87v44.29c0,2.04.43,3.5,1.3,4.37.87.87,2.35,1.31,4.46,1.31h6.48l.99,6.39c-1.02.3-2.18.54-3.47.72-1.29.18-2.58.32-3.87.4-1.29.09-2.33.14-3.11.14-3.72,0-6.57-1.02-8.55-3.06-1.98-2.04-2.97-4.98-2.97-8.82V22.85h8.73Z"/>
        <path class="cls-2" d="m355.28,52.56l-.09,6.12-20.7.09c-2.04.06-3.47.59-4.28,1.58-.81.99-1.22,2.36-1.22,4.1v2.7c0,2.16.52,3.74,1.58,4.73,1.05.99,2.71,1.48,5,1.48,1.68,0,3.56-.32,5.63-.95,2.07-.63,4.16-1.59,6.26-2.88,2.1-1.29,3.99-2.93,5.67-4.91v5.67c-.6.84-1.5,1.85-2.7,3.02-1.2,1.17-2.66,2.3-4.37,3.38-1.71,1.08-3.6,1.98-5.67,2.7-2.07.72-4.34,1.08-6.8,1.08-2.64,0-4.97-.47-6.98-1.4-2.01-.93-3.59-2.31-4.73-4.14-1.14-1.83-1.71-4.06-1.71-6.71v-4.77c0-3.42,1.09-6.09,3.29-8.01,2.19-1.92,5.23-2.88,9.14-2.88h22.68Zm-11.52-17.91c3.36,0,6.2.44,8.51,1.3,2.31.87,4.05,2.36,5.22,4.46,1.17,2.1,1.76,4.98,1.76,8.64v30.6h-6.84l-1.35-9.54-.54-1.08v-19.98c-.06-2.58-.67-4.44-1.85-5.58-1.17-1.14-3.44-1.71-6.8-1.71-2.28,0-5.15.12-8.6.36-3.45.24-6.86.48-10.22.72l-.81-6.21c2.04-.36,4.31-.69,6.8-.99,2.49-.3,5.03-.54,7.61-.72,2.58-.18,4.95-.27,7.11-.27Z"/>
        <path class="cls-2" d="m379.04,16.91c1.74,0,2.61.87,2.61,2.61v5.13c0,1.74-.87,2.61-2.61,2.61h-4.05c-1.74,0-2.61-.87-2.61-2.61v-5.13c0-1.74.87-2.61,2.61-2.61h4.05Zm2.25,18.81v43.93h-8.55v-43.93h8.55Z"/>
        <path class="cls-2" d="m410.18,34.64c1.92,0,3.99.06,6.21.18,2.22.12,4.42.27,6.62.45,2.19.18,4.19.42,5.99.72l-.63,6.12c-2.82-.12-5.63-.22-8.42-.32-2.79-.09-5.57-.14-8.33-.14-2.64-.06-4.71,0-6.21.18-1.5.18-2.58.63-3.24,1.35-.66.72-.99,1.95-.99,3.69,0,2.1.52,3.48,1.58,4.14,1.05.66,2.62,1.23,4.73,1.71l12.51,2.88c3.54.9,6.15,2.22,7.83,3.96,1.68,1.74,2.52,4.5,2.52,8.28s-.67,6.32-2.03,8.15c-1.35,1.83-3.44,3.06-6.26,3.69-2.82.63-6.39.95-10.71.95-1.62,0-4.04-.06-7.25-.18-3.21-.12-6.74-.51-10.58-1.17l.63-6.03c1.38.06,2.88.12,4.5.18,1.62.06,3.33.09,5.13.09h5.58c3.24,0,5.78-.14,7.61-.41,1.83-.27,3.12-.81,3.87-1.62.75-.81,1.12-2.03,1.12-3.65,0-1.98-.62-3.32-1.85-4.01-1.23-.69-2.9-1.27-5-1.76l-12.33-2.88c-2.52-.6-4.52-1.42-5.99-2.48-1.47-1.05-2.52-2.37-3.15-3.96-.63-1.59-.95-3.59-.95-5.99,0-3.36.6-5.93,1.8-7.7,1.2-1.77,3.07-2.97,5.63-3.6,2.55-.63,5.9-.91,10.04-.85Z"/>
        <path class="cls-2" d="m475.89,34.64c2.94,0,5.82.38,8.64,1.12,2.82.75,5.49,1.97,8.01,3.65l-.54,5.04c-2.64-.84-5-1.48-7.07-1.93-2.07-.45-4.31-.68-6.71-.68s-4.34.41-5.81,1.22c-1.47.81-2.55,2.36-3.24,4.64-.69,2.28-1.04,5.52-1.04,9.72s.33,7.37.99,9.68c.66,2.31,1.71,3.92,3.15,4.82,1.44.9,3.27,1.35,5.49,1.35,1.68,0,3.21-.21,4.59-.63,1.38-.42,2.82-1.11,4.32-2.07,1.5-.96,3.27-2.16,5.31-3.6l.72,5.58c-2.28,2.28-4.94,4.22-7.97,5.81-3.03,1.59-6.38,2.39-10.04,2.39-5.52,0-9.48-1.96-11.88-5.9-2.4-3.93-3.6-9.71-3.6-17.33,0-5.76.61-10.31,1.85-13.64,1.23-3.33,3.07-5.7,5.54-7.11,2.46-1.41,5.55-2.12,9.27-2.12Zm23.76-18v63.01h-6.84l-.99-7.74-.9-.72v-29.88l.54-1.35c-.24-1.68-.39-3.33-.45-4.95-.06-1.62-.09-3.33-.09-5.13v-13.23h8.73Z"/>
        <path class="cls-2" d="m545.83,52.56l-.09,6.12-20.7.09c-2.04.06-3.47.59-4.28,1.58-.81.99-1.22,2.36-1.22,4.1v2.7c0,2.16.52,3.74,1.58,4.73,1.05.99,2.71,1.48,5,1.48,1.68,0,3.56-.32,5.63-.95,2.07-.63,4.16-1.59,6.26-2.88,2.1-1.29,3.99-2.93,5.67-4.91v5.67c-.6.84-1.5,1.85-2.7,3.02-1.2,1.17-2.66,2.3-4.37,3.38-1.71,1.08-3.6,1.98-5.67,2.7-2.07.72-4.34,1.08-6.8,1.08-2.64,0-4.97-.47-6.98-1.4-2.01-.93-3.59-2.31-4.73-4.14-1.14-1.83-1.71-4.06-1.71-6.71v-4.77c0-3.42,1.09-6.09,3.29-8.01,2.19-1.92,5.23-2.88,9.14-2.88h22.68Zm-11.52-17.91c3.36,0,6.2.44,8.51,1.3,2.31.87,4.05,2.36,5.22,4.46,1.17,2.1,1.76,4.98,1.76,8.64v30.6h-6.84l-1.35-9.54-.54-1.08v-19.98c-.06-2.58-.67-4.44-1.85-5.58-1.17-1.14-3.44-1.71-6.8-1.71-2.28,0-5.15.12-8.6.36-3.45.24-6.86.48-10.22.72l-.81-6.21c2.04-.36,4.31-.69,6.8-.99,2.49-.3,5.03-.54,7.61-.72,2.58-.18,4.95-.27,7.11-.27Z"/>
        <path class="cls-2" d="m595.79,17.45c2.94,0,5.91.02,8.91.04,3,.03,5.97.08,8.91.14,2.94.06,5.73.21,8.37.45l-.45,6.84h-23.13c-2.04,0-3.53.45-4.46,1.35-.93.9-1.4,2.34-1.4,4.32v49.06h-9V28.88c0-3.6,1.11-6.41,3.33-8.42,2.22-2.01,5.19-3.02,8.91-3.02Zm-10.71,26.91h33.03v7.02h-33.03v-7.02Z"/>
        <path class="cls-2" d="m640.43,16.64l-.09,50.5c0,1.86.52,3.27,1.58,4.23,1.05.96,2.51,1.44,4.37,1.44h4.14l.99,6.39c-.6.3-1.43.54-2.48.72-1.05.18-2.13.32-3.24.4-1.11.09-2.06.14-2.84.14-3.36,0-6.05-.96-8.06-2.88-2.01-1.92-3.02-4.71-3.02-8.37V16.64h8.64Z"/>
        <path class="cls-2" d="m677.97,34.64c5.16,0,9.29.75,12.38,2.25,3.09,1.5,5.31,3.95,6.66,7.34,1.35,3.39,2.03,7.88,2.03,13.46s-.68,10.16-2.03,13.55c-1.35,3.39-3.57,5.84-6.66,7.34-3.09,1.5-7.22,2.25-12.38,2.25s-9.2-.75-12.29-2.25c-3.09-1.5-5.33-3.95-6.71-7.34-1.38-3.39-2.07-7.91-2.07-13.55s.69-10.07,2.07-13.46c1.38-3.39,3.61-5.84,6.71-7.34,3.09-1.5,7.19-2.25,12.29-2.25Zm0,7.02c-3,0-5.37.48-7.11,1.44-1.74.96-2.97,2.6-3.69,4.91-.72,2.31-1.08,5.54-1.08,9.68s.36,7.38,1.08,9.72c.72,2.34,1.95,3.98,3.69,4.91,1.74.93,4.11,1.4,7.11,1.4s5.39-.46,7.16-1.4c1.77-.93,3.02-2.57,3.74-4.91s1.08-5.58,1.08-9.72-.36-7.37-1.08-9.68c-.72-2.31-1.97-3.95-3.74-4.91-1.77-.96-4.16-1.44-7.16-1.44Z"/>
        <path class="cls-2" d="m717.21,35.72l1.08,8.46.81,1.26v34.2h-8.64v-43.93h6.75Zm21.51-1.08l-.9,8.1h-2.79c-2.46,0-4.97.48-7.52,1.44-2.55.96-5.66,2.34-9.32,4.14l-.63-5.31c3.18-2.64,6.41-4.69,9.68-6.17,3.27-1.47,6.44-2.21,9.5-2.21h1.98Z"/>
        <path class="cls-2" d="m764.47,34.64c6.78,0,11.69,1.22,14.72,3.65,3.03,2.43,4.55,6.02,4.55,10.76.06,3.96-.8,7.02-2.57,9.18-1.77,2.16-4.64,3.24-8.6,3.24h-25.38v-6.21h23.13c1.98,0,3.27-.63,3.87-1.89.6-1.26.9-2.7.9-4.32-.06-2.7-.85-4.6-2.39-5.72-1.53-1.11-4.16-1.67-7.88-1.67-3.06-.06-5.46.36-7.2,1.26-1.74.9-2.96,2.46-3.65,4.68-.69,2.22-1.03,5.34-1.03,9.36,0,4.5.43,7.94,1.3,10.31.87,2.37,2.28,4.01,4.23,4.91,1.95.9,4.55,1.35,7.79,1.35,2.28,0,4.84-.1,7.7-.32,2.85-.21,5.45-.46,7.79-.77l.9,5.67c-1.44.6-3.18,1.1-5.22,1.49-2.04.39-4.14.67-6.3.85s-4.14.27-5.94.27c-5.16,0-9.3-.78-12.42-2.34-3.12-1.56-5.4-4.03-6.84-7.43-1.44-3.39-2.16-7.85-2.16-13.37s.72-10.32,2.16-13.68c1.44-3.36,3.69-5.75,6.75-7.16,3.06-1.41,6.99-2.12,11.79-2.12Z"/>
        <path class="cls-2" d="m809.74,34.64c1.92,0,3.99.06,6.21.18,2.22.12,4.42.27,6.62.45,2.19.18,4.19.42,5.99.72l-.63,6.12c-2.82-.12-5.63-.22-8.42-.32-2.79-.09-5.57-.14-8.33-.14-2.64-.06-4.71,0-6.21.18-1.5.18-2.58.63-3.24,1.35-.66.72-.99,1.95-.99,3.69,0,2.1.52,3.48,1.58,4.14,1.05.66,2.62,1.23,4.73,1.71l12.51,2.88c3.54.9,6.15,2.22,7.83,3.96,1.68,1.74,2.52,4.5,2.52,8.28s-.67,6.32-2.03,8.15c-1.35,1.83-3.44,3.06-6.26,3.69-2.82.63-6.39.95-10.71.95-1.62,0-4.04-.06-7.25-.18-3.21-.12-6.74-.51-10.58-1.17l.63-6.03c1.38.06,2.88.12,4.5.18,1.62.06,3.33.09,5.13.09h5.58c3.24,0,5.78-.14,7.61-.41,1.83-.27,3.12-.81,3.87-1.62.75-.81,1.12-2.03,1.12-3.65,0-1.98-.62-3.32-1.85-4.01-1.23-.69-2.9-1.27-5-1.76l-12.33-2.88c-2.52-.6-4.52-1.42-5.99-2.48-1.47-1.05-2.52-2.37-3.15-3.96-.63-1.59-.95-3.59-.95-5.99,0-3.36.6-5.93,1.8-7.7,1.2-1.77,3.07-2.97,5.63-3.6,2.55-.63,5.9-.91,10.04-.85Z"/>
        <path class="cls-2" d="m866.63,35.72v6.48h-30.33v-6.03l8.64-.45h21.69Zm-13.68-12.87v44.29c0,2.04.43,3.5,1.3,4.37.87.87,2.35,1.31,4.46,1.31h6.48l.99,6.39c-1.02.3-2.18.54-3.47.72-1.29.18-2.58.32-3.87.4-1.29.09-2.33.14-3.11.14-3.72,0-6.57-1.02-8.55-3.06-1.98-2.04-2.97-4.98-2.97-8.82V22.85h8.73Z"/>
        <path class="cls-2" d="m908.21,52.56l-.09,6.12-20.7.09c-2.04.06-3.47.59-4.28,1.58-.81.99-1.22,2.36-1.22,4.1v2.7c0,2.16.52,3.74,1.58,4.73,1.05.99,2.71,1.48,5,1.48,1.68,0,3.56-.32,5.63-.95,2.07-.63,4.16-1.59,6.26-2.88,2.1-1.29,3.99-2.93,5.67-4.91v5.67c-.6.84-1.5,1.85-2.7,3.02-1.2,1.17-2.66,2.3-4.37,3.38-1.71,1.08-3.6,1.98-5.67,2.7-2.07.72-4.34,1.08-6.8,1.08-2.64,0-4.97-.47-6.98-1.4-2.01-.93-3.59-2.31-4.73-4.14-1.14-1.83-1.71-4.06-1.71-6.71v-4.77c0-3.42,1.09-6.09,3.29-8.01,2.19-1.92,5.23-2.88,9.14-2.88h22.68Zm-11.52-17.91c3.36,0,6.2.44,8.51,1.3,2.31.87,4.05,2.36,5.22,4.46,1.17,2.1,1.76,4.98,1.76,8.64v30.6h-6.84l-1.35-9.54-.54-1.08v-19.98c-.06-2.58-.67-4.44-1.85-5.58-1.17-1.14-3.44-1.71-6.8-1.71-2.28,0-5.15.12-8.6.36-3.45.24-6.86.48-10.22.72l-.81-6.21c2.04-.36,4.31-.69,6.8-.99,2.49-.3,5.03-.54,7.61-.72,2.58-.18,4.95-.27,7.11-.27Z"/>
      </g>
    </g>
  </g>
</svg>