<svg width="23" height="23" viewBox="0 0 23 23" fill="none" xmlns="http://www.w3.org/2000/svg">
<g id="Google Icon">
<g id="Vector">
<path fill-rule="evenodd" clip-rule="evenodd" d="M22.4845 11.5769C22.4845 10.7854 22.412 10.0244 22.2774 9.29382H11.5508V13.6113H17.6803C17.4163 15.0065 16.6139 16.1886 15.4076 16.98V19.7806H19.0884C21.2421 17.8374 22.4845 14.976 22.4845 11.5769Z" fill="#4285F4"/>
<path fill-rule="evenodd" clip-rule="evenodd" d="M11.5508 22.4846C14.6259 22.4846 17.204 21.4852 19.0884 19.7806L15.4076 16.98C14.3878 17.6497 13.0832 18.0454 11.5508 18.0454C8.58441 18.0454 6.07359 16.082 5.17798 13.4438H1.37291V16.3356C3.24697 19.9834 7.09863 22.4846 11.5508 22.4846Z" fill="#34A853"/>
<path fill-rule="evenodd" clip-rule="evenodd" d="M5.17798 13.4438C4.95019 12.7741 4.82076 12.0588 4.82076 11.3232C4.82076 10.5875 4.95018 9.87218 5.17797 9.20249V6.31065H1.37291C0.60154 7.81745 0.161499 9.52212 0.161499 11.3232C0.161499 13.1242 0.601545 14.8288 1.37291 16.3356L5.17798 13.4438Z" fill="#FBBC05"/>
<path fill-rule="evenodd" clip-rule="evenodd" d="M11.5508 4.60085C13.223 4.60085 14.7243 5.164 15.9046 6.27L19.1713 3.06868C17.1989 1.26762 14.6207 0.161621 11.5508 0.161621C7.09863 0.161621 3.24697 2.66287 1.37291 6.31065L5.17797 9.20249C6.07358 6.56432 8.58441 4.60085 11.5508 4.60085Z" fill="#EA4335"/>
</g>
</g>
</svg>
